# xmcd
#
# Track frame offsets:
#	150
#	17887
#	35174
#	51036
#	68623
#	89435
#	105897
#	121224
#	138286
#	153286
#	166523
#	182235
#	194047
#	209534
#
# Disc length: 3034 seconds
#
# Revision: 1
# Processed by: cddbd v1.5.2PL0 Copyright (c) Steve Scherf et al.
# Submitted via: EasyCDDAExtractor 7.0.3.1
#
DISCID=ba0bd80e
DTITLE=Various Artist - Hitz Country 2010 Vol-2
DYEAR=2010
DGENRE=Country
TTITLE0=Keith Urban - Ti Summer Comes Around
TTITLE1=Zac Brown Band - Highway 20 Ride
TTITLE2=Lady Antebellum - American Honey
TTITLE3=Trace Adkins - Ala-Freakin-Bama
TTITLE4=Brad Paisley - American Saturday Night
TTITLE5=J. Singleton and The Grove - Look Who's Back In Love
TTITLE6=Cross Canadian Ragweed  - Kick In the Head
TTITLE7=Montgomery Gentry - Oughta Be More Songs About That
TTITLE8=Coldwater Jane - Bring On the Love
TTITLE9=Luke Bryan - Rain Is A Good Thing
TTITLE10=Chris Young - The Man I Want To Be
TTITLE11=Justin Moore - Backwoods
TTITLE12=Alan Jackson - It's Just That Way
TTITLE13=Taylor Swift - Fearless
EXTD=
EXTT0=
EXTT1=
EXTT2=
EXTT3=
EXTT4=
EXTT5=
EXTT6=
EXTT7=
EXTT8=
EXTT9=
EXTT10=
EXTT11=
EXTT12=
EXTT13=
PLAYORDER=
